<?xml version="1.0" standalone="no"?>
<!DOCTYPE svg PUBLIC "-//W3C//DTD SVG 20010904//EN"
 "http://www.w3.org/TR/2001/REC-SVG-20010904/DTD/svg10.dtd">
<svg version="1.0" xmlns="http://www.w3.org/2000/svg"
 width="1344.000000pt" height="1344.000000pt" viewBox="0 0 1344.000000 1344.000000"
 preserveAspectRatio="xMidYMid meet">
<metadata>
Created by potrace 1.14, written by Peter Selinger 2001-2017
</metadata>
<g transform="translate(0.000000,1344.000000) scale(0.100000,-0.100000)"
fill="#000000" stroke="none">
<path d="M1220 11940 c-102 -5 -204 -12 -227 -15 l-43 -6 0 -4380 c0 -4167 1
-4380 18 -4375 49 14 544 28 797 23 661 -15 1261 -99 1895 -263 372 -96 696
-218 1255 -471 270 -122 980 -475 1294 -643 134 -71 248 -130 253 -130 4 0 7
1072 6 2382 l-3 2383 -555 202 c-305 112 -565 206 -577 209 l-23 6 0 -1240 0
-1240 -380 126 -380 127 0 2788 c0 2227 3 2788 13 2784 6 -3 177 -61 379 -129
l368 -123 2 -1264 3 -1264 565 -194 c311 -106 571 -193 578 -193 9 0 12 336
12 1645 l0 1645 -172 113 c-1382 908 -2708 1380 -4173 1487 -202 15 -690 20
-905 10z"/>
<path d="M11575 11943 c-1528 -52 -2974 -542 -4432 -1500 l-173 -113 0 -1645
c0 -1309 3 -1645 13 -1645 6 0 266 87 577 193 l565 194 3 1264 2 1264 380 127
380 126 0 -2786 0 -2787 -380 -127 -380 -126 0 1239 c0 681 -3 1239 -7 1239
-5 0 -264 -93 -578 -208 l-570 -207 -3 -2382 c-1 -1368 2 -2383 7 -2383 5 0
93 45 197 101 854 457 1717 857 2234 1034 260 89 689 194 1040 255 566 98
1212 138 1765 111 132 -7 248 -14 258 -17 16 -5 17 208 17 4374 l0 4380 -37 6
c-111 18 -610 28 -878 19z"/>
<path d="M260 10273 c-85 -12 -174 -24 -197 -28 l-43 -6 0 -4375 0 -4375 33 6
c51 8 411 52 652 79 1036 117 1910 156 3026 136 646 -12 976 -26 1532 -66 120
-9 221 -14 223 -11 11 11 -408 233 -636 338 -588 268 -1360 507 -1963 609
-414 70 -665 82 -1616 79 l-734 -3 -42 47 c-27 29 -47 63 -54 91 -8 33 -11
991 -12 3593 -1 1951 -4 3629 -8 3728 l-6 181 -155 -23z"/>
<path d="M13018 10296 c-1 -1 -4 -1688 -7 -3751 l-6 -3750 -22 -40 c-11 -22
-35 -53 -52 -70 l-31 -29 -733 2 c-949 4 -1199 -8 -1614 -78 -555 -93 -1224
-293 -1798 -537 -290 -124 -828 -400 -797 -411 6 -2 105 4 219 12 1212 90
2668 94 3718 11 450 -36 1293 -127 1493 -160 l32 -6 0 4376 c0 2406 -3 4375
-7 4375 -5 0 -95 13 -200 29 -106 15 -194 27 -195 27z"/>
</g>
</svg>
